<mxfile host="Electron" modified="2023-12-05T08:41:24.450Z" agent="Mozilla/5.0 (Macintosh; Intel Mac OS X 10_15_7) AppleWebKit/537.36 (KHTML, like Gecko) draw.io/21.2.8 Chrome/112.0.5615.165 Electron/24.2.0 Safari/537.36" etag="K66UPG_t8-caRNaZTZtC" version="21.2.8" type="device">
  <diagram name="Page-1" id="rqAKABNXffDw6XH8gJLP">
    <mxGraphModel dx="2331" dy="537" grid="1" gridSize="10" guides="1" tooltips="1" connect="1" arrows="1" fold="1" page="1" pageScale="1" pageWidth="1169" pageHeight="827" math="0" shadow="0">
      <root>
        <mxCell id="0" />
        <mxCell id="1" parent="0" />
        <mxCell id="qsSxXZ3SzrfTKP2sz2HG-7" style="edgeStyle=orthogonalEdgeStyle;rounded=0;orthogonalLoop=1;jettySize=auto;html=1;exitX=1;exitY=0.5;exitDx=0;exitDy=0;entryX=0;entryY=0.5;entryDx=0;entryDy=0;" parent="1" source="qsSxXZ3SzrfTKP2sz2HG-1" target="qsSxXZ3SzrfTKP2sz2HG-2" edge="1">
          <mxGeometry relative="1" as="geometry" />
        </mxCell>
        <mxCell id="qsSxXZ3SzrfTKP2sz2HG-13" style="edgeStyle=orthogonalEdgeStyle;rounded=0;orthogonalLoop=1;jettySize=auto;html=1;exitX=0;exitY=0.5;exitDx=0;exitDy=0;endArrow=none;endFill=0;startArrow=classic;startFill=1;" parent="1" edge="1">
          <mxGeometry relative="1" as="geometry">
            <mxPoint y="106" as="targetPoint" />
            <mxPoint x="80" y="106" as="sourcePoint" />
          </mxGeometry>
        </mxCell>
        <mxCell id="qsSxXZ3SzrfTKP2sz2HG-1" value="Phase Frequency Detector" style="rounded=0;whiteSpace=wrap;html=1;" parent="1" vertex="1">
          <mxGeometry x="80" y="80" width="120" height="80" as="geometry" />
        </mxCell>
        <mxCell id="qsSxXZ3SzrfTKP2sz2HG-6" style="edgeStyle=orthogonalEdgeStyle;rounded=0;orthogonalLoop=1;jettySize=auto;html=1;exitX=1;exitY=0.5;exitDx=0;exitDy=0;" parent="1" source="qsSxXZ3SzrfTKP2sz2HG-2" target="qsSxXZ3SzrfTKP2sz2HG-4" edge="1">
          <mxGeometry relative="1" as="geometry" />
        </mxCell>
        <mxCell id="qsSxXZ3SzrfTKP2sz2HG-17" style="edgeStyle=orthogonalEdgeStyle;rounded=0;orthogonalLoop=1;jettySize=auto;html=1;exitX=0.5;exitY=0;exitDx=0;exitDy=0;startArrow=classic;startFill=1;endArrow=none;endFill=0;" parent="1" source="qsSxXZ3SzrfTKP2sz2HG-2" target="qsSxXZ3SzrfTKP2sz2HG-16" edge="1">
          <mxGeometry relative="1" as="geometry" />
        </mxCell>
        <mxCell id="qsSxXZ3SzrfTKP2sz2HG-2" value="Controller" style="rounded=0;whiteSpace=wrap;html=1;" parent="1" vertex="1">
          <mxGeometry x="280" y="80" width="120" height="80" as="geometry" />
        </mxCell>
        <mxCell id="qsSxXZ3SzrfTKP2sz2HG-8" style="edgeStyle=orthogonalEdgeStyle;rounded=0;orthogonalLoop=1;jettySize=auto;html=1;exitX=1;exitY=0.5;exitDx=0;exitDy=0;entryX=1;entryY=0.5;entryDx=0;entryDy=0;" parent="1" source="qsSxXZ3SzrfTKP2sz2HG-4" target="qsSxXZ3SzrfTKP2sz2HG-5" edge="1">
          <mxGeometry relative="1" as="geometry" />
        </mxCell>
        <mxCell id="qsSxXZ3SzrfTKP2sz2HG-9" style="edgeStyle=orthogonalEdgeStyle;rounded=0;orthogonalLoop=1;jettySize=auto;html=1;exitX=1;exitY=0.5;exitDx=0;exitDy=0;" parent="1" source="qsSxXZ3SzrfTKP2sz2HG-4" edge="1">
          <mxGeometry relative="1" as="geometry">
            <mxPoint x="680" y="120" as="targetPoint" />
          </mxGeometry>
        </mxCell>
        <mxCell id="qsSxXZ3SzrfTKP2sz2HG-4" value="Digitally Controlled Oscillator" style="rounded=0;whiteSpace=wrap;html=1;" parent="1" vertex="1">
          <mxGeometry x="480" y="80" width="120" height="80" as="geometry" />
        </mxCell>
        <mxCell id="qsSxXZ3SzrfTKP2sz2HG-11" style="edgeStyle=orthogonalEdgeStyle;rounded=0;orthogonalLoop=1;jettySize=auto;html=1;exitX=0;exitY=0.5;exitDx=0;exitDy=0;entryX=0;entryY=0.75;entryDx=0;entryDy=0;" parent="1" source="qsSxXZ3SzrfTKP2sz2HG-5" target="qsSxXZ3SzrfTKP2sz2HG-1" edge="1">
          <mxGeometry relative="1" as="geometry" />
        </mxCell>
        <mxCell id="qsSxXZ3SzrfTKP2sz2HG-5" value="Frequency Divider" style="rounded=0;whiteSpace=wrap;html=1;" parent="1" vertex="1">
          <mxGeometry x="280" y="200" width="120" height="80" as="geometry" />
        </mxCell>
        <mxCell id="qsSxXZ3SzrfTKP2sz2HG-10" value="Output" style="text;html=1;align=center;verticalAlign=middle;resizable=0;points=[];autosize=1;strokeColor=none;fillColor=none;" parent="1" vertex="1">
          <mxGeometry x="670" y="105" width="60" height="30" as="geometry" />
        </mxCell>
        <mxCell id="qsSxXZ3SzrfTKP2sz2HG-12" value="Input" style="text;html=1;align=center;verticalAlign=middle;resizable=0;points=[];autosize=1;strokeColor=none;fillColor=none;" parent="1" vertex="1">
          <mxGeometry x="-5" y="78" width="50" height="30" as="geometry" />
        </mxCell>
        <mxCell id="qsSxXZ3SzrfTKP2sz2HG-15" value="Feedback" style="text;html=1;align=center;verticalAlign=middle;resizable=0;points=[];autosize=1;strokeColor=none;fillColor=none;" parent="1" vertex="1">
          <mxGeometry x="-13" y="125" width="80" height="30" as="geometry" />
        </mxCell>
        <mxCell id="qsSxXZ3SzrfTKP2sz2HG-16" value="Config" style="text;html=1;align=center;verticalAlign=middle;resizable=0;points=[];autosize=1;strokeColor=none;fillColor=none;" parent="1" vertex="1">
          <mxGeometry x="310" y="26" width="60" height="30" as="geometry" />
        </mxCell>
        <mxCell id="m1kvBWWoilo-fOGi-jHV-1" value="error" style="text;html=1;align=center;verticalAlign=middle;resizable=0;points=[];autosize=1;strokeColor=none;fillColor=none;" vertex="1" parent="1">
          <mxGeometry x="210" y="95" width="50" height="30" as="geometry" />
        </mxCell>
        <mxCell id="m1kvBWWoilo-fOGi-jHV-2" value="dco&lt;br&gt;control" style="text;html=1;align=center;verticalAlign=middle;resizable=0;points=[];autosize=1;strokeColor=none;fillColor=none;" vertex="1" parent="1">
          <mxGeometry x="410" y="82" width="60" height="40" as="geometry" />
        </mxCell>
      </root>
    </mxGraphModel>
  </diagram>
</mxfile>
